<svg width="24" height="24" viewBox="0 0 24 24" fill="none" xmlns="http://www.w3.org/2000/svg">
<path d="M23 12.0372C23 6.49324 18.5234 2 13 2C7.47656 2 3 6.49324 3 12.0372C3 16.7422 6.23047 20.6944 10.5859 21.7804V15.1033H8.52344V12.0372H10.5859V10.7159C10.5859 7.30092 12.125 5.71692 15.4688 5.71692C16.1016 5.71692 17.1953 5.84238 17.6445 5.96785V8.74378C17.4102 8.72025 17 8.70457 16.4883 8.70457C14.8477 8.70457 14.2148 9.32797 14.2148 10.9473V12.0372H17.4805L16.918 15.1033H14.2109V22C19.1641 21.4001 23 17.1696 23 12.0372Z" fill="#207CD3"/>
</svg>
