<svg width="40" height="30" viewBox="0 0 40 30" fill="none" xmlns="http://www.w3.org/2000/svg">
<path d="M29.3537 4.00158H10.6463C6.97439 4.00158 4 6.89175 4 10.4576V19.5424C4 23.1082 6.976 26 10.6463 26H29.3537C33.0256 26 36 23.1082 36 19.5424V10.4576C36 6.89175 33.024 4 29.3537 4V4.00158ZM24.8592 15.441L16.1092 19.4967C16.0558 19.5215 15.9969 19.5327 15.938 19.5294C15.879 19.526 15.8218 19.5081 15.7717 19.4774C15.7216 19.4467 15.6801 19.4041 15.6511 19.3535C15.6221 19.3029 15.6065 19.246 15.6058 19.188V10.8262C15.6068 10.7677 15.6229 10.7104 15.6526 10.6597C15.6823 10.609 15.7245 10.5665 15.7754 10.5362C15.8263 10.5058 15.8842 10.4886 15.9437 10.4862C16.0032 10.4837 16.0623 10.4961 16.1156 10.5222L24.8673 14.8299C24.9256 14.8585 24.9745 14.9026 25.0084 14.9572C25.0423 15.0118 25.0598 15.0747 25.059 15.1387C25.0582 15.2027 25.039 15.2651 25.0036 15.3189C24.9683 15.3726 24.9183 15.4139 24.8592 15.441Z" fill="#E42E21"/>
</svg>
