<svg width="89" height="49" viewBox="0 0 89 49" fill="none" xmlns="http://www.w3.org/2000/svg">
<path d="M20.5789 48.8577C17.3536 48.8577 14.4689 48.4261 11.925 47.563C9.38102 46.6999 7.2232 45.4733 5.45152 43.8834C3.67984 42.248 2.31701 40.2719 1.36302 37.955C0.45447 35.5928 0.00019334 32.9353 0.00019334 29.9825V0.00018875H14.1055V29.5736C14.1055 30.6185 14.2872 31.5724 14.6506 32.4356C15.0141 33.2533 15.491 33.9574 16.0816 34.548C16.6722 35.0931 17.3536 35.5247 18.1258 35.8427C18.9435 36.1606 19.784 36.3196 20.6471 36.3196C22.3279 36.3196 23.7816 35.7291 25.0081 34.548C26.2801 33.3214 26.9161 31.6633 26.9161 29.5736V0.00018875H41.0214V29.9825C41.0214 33.0716 40.5217 35.7972 39.5223 38.1595C38.5683 40.5217 37.1828 42.4978 35.3657 44.0878C33.594 45.6778 31.4362 46.8816 28.8922 47.6993C26.3937 48.4716 23.6226 48.8577 20.5789 48.8577ZM68.5575 48.8577C65.3322 48.8577 62.4475 48.4261 59.9035 47.563C57.3596 46.6999 55.2018 45.4733 53.4301 43.8834C51.6584 42.248 50.2956 40.2719 49.3416 37.955C48.433 35.5928 47.9788 32.9353 47.9788 29.9825V0.00018875H62.0841V29.5736C62.0841 30.6185 62.2658 31.5724 62.6292 32.4356C62.9926 33.2533 63.4696 33.9574 64.0602 34.548C64.6507 35.0931 65.3322 35.5247 66.1044 35.8427C66.9221 36.1606 67.7625 36.3196 68.6257 36.3196C70.3065 36.3196 71.7602 35.7291 72.9867 34.548C74.2587 33.3214 74.8947 31.6633 74.8947 29.5736V0.00018875H89V29.9825C89 33.0716 88.5003 35.7972 87.5009 38.1595C86.5469 40.5217 85.1614 42.4978 83.3442 44.0878C81.5726 45.6778 79.4147 46.8816 76.8708 47.6993C74.3723 48.4716 71.6012 48.8577 68.5575 48.8577Z" fill="#0071BC"/>
<path d="M36.0055 19.862C35.9117 19.7245 35.8252 19.582 35.7467 19.4352L35.5578 19.0784C35.4403 18.851 35.3352 18.6174 35.2429 18.3788C35.0492 17.9 34.8948 17.4063 34.7812 16.9025C34.5486 15.8649 34.5012 14.7943 34.6412 13.7402C34.9564 11.6536 35.976 9.73775 37.5307 8.31096C38.9534 6.99523 40.6605 6.02556 42.5192 5.47742C44.412 4.87743 46.4297 4.78813 48.3681 5.21856C49.4429 5.4692 50.4519 5.94624 51.3276 6.61783C52.2337 7.32233 52.9542 8.23735 53.4265 9.28346C54.1941 11.1445 54.4103 13.187 54.0492 15.1674C53.911 16.0516 53.7146 16.9257 53.4615 17.7841C53.3282 18.2622 53.1598 18.7299 52.9578 19.1833C52.7619 19.6311 52.552 20.0299 52.3351 20.4217C51.4804 21.8926 50.5144 23.296 49.4456 24.6195C47.3926 27.1996 45.1221 29.5988 42.6591 31.7908C41.3749 32.9427 39.9832 33.9688 38.5032 34.8552C38.0725 35.1076 37.6235 35.3275 37.1599 35.5129L36.7751 35.6598L36.3274 35.7858C36.2077 35.8202 36.0862 35.8482 35.9635 35.8697L35.6347 35.9397C35.4038 35.9817 35.2009 36.0236 34.8581 36.0586H34.6972H34.4453C34.3067 36.0522 34.1688 36.0359 34.0325 36.0096C33.6984 35.928 33.3858 35.7753 33.116 35.5619C32.8225 35.3239 32.5986 35.0111 32.4681 34.6564C32.3375 34.3017 32.3052 33.9184 32.3744 33.5469C32.8432 32.2036 32.8572 32.6724 32.9621 32.4205C33.0664 32.3156 33.1813 32.2218 33.3049 32.1406C33.3723 32.0945 33.4424 32.0525 33.5148 32.0147C33.6396 31.949 33.7681 31.8906 33.8996 31.8398L34.1235 31.7628C34.6272 31.5949 35.033 31.504 35.4598 31.399C38.7208 30.6893 42.0505 30.3444 45.3877 30.3706C47.0581 30.3816 48.7263 30.4938 50.3831 30.7064C52.0622 30.9023 53.6784 31.364 55.3995 31.5599H55.4625C55.7769 31.5791 56.0841 31.6621 56.3654 31.8037C56.6467 31.9453 56.8963 32.1427 57.099 32.3838C57.3017 32.6249 57.4532 32.9047 57.5443 33.2062C57.6355 33.5077 57.6644 33.8246 57.6292 34.1376C57.5941 34.4506 57.4956 34.7532 57.3399 35.027C57.1841 35.3008 56.9743 35.54 56.7232 35.7302C56.4721 35.9203 56.185 36.0574 55.8792 36.1331C55.5735 36.2088 55.2556 36.2216 54.9447 36.1706C54.6571 36.1347 54.3778 36.0495 54.1192 35.9187C52.7663 35.3179 51.3204 34.9534 49.8444 34.8412C48.3567 34.6542 46.859 34.5584 45.3597 34.5544C42.3474 34.547 39.3438 34.8755 36.4043 35.5339C36.0615 35.6108 35.7047 35.7088 35.4458 35.7928H35.3968L35.5018 35.7368C35.554 35.7121 35.6033 35.6816 35.6487 35.6458C35.763 35.5716 35.8686 35.4848 35.9635 35.387C36.0615 35.1491 36.0615 35.6178 36.5233 34.2885C36.596 33.9261 36.5694 33.5507 36.4462 33.2022C36.3231 32.8536 36.1079 32.5448 35.8236 32.3086C35.5621 32.1018 35.2551 31.9603 34.9281 31.8958C34.8184 31.8676 34.7055 31.8535 34.5923 31.8538H34.4523L34.8511 31.7838L35.11 31.7349C35.1811 31.721 35.2513 31.7023 35.3199 31.6789H35.4458L35.6137 31.6159C35.8874 31.4961 36.1517 31.3557 36.4043 31.1961C37.6307 30.433 38.7831 29.557 39.8465 28.5795C42.1078 26.5455 44.191 24.3219 46.0733 21.9329C46.993 20.7864 47.8255 19.5726 48.564 18.3018C48.7319 18.0009 48.8859 17.7001 49.0118 17.4203C49.1334 17.1437 49.234 16.8584 49.3126 16.5667C49.5096 15.9018 49.6592 15.2238 49.7604 14.5377C49.992 13.3868 49.8951 12.1939 49.4806 11.0955C49.284 10.679 48.9911 10.3151 48.6262 10.0341C48.2612 9.7531 47.8346 9.56294 47.3816 9.47935C45.2827 8.98261 42.3233 9.91313 40.6441 11.5783C39.8376 12.3108 39.3087 13.2994 39.1469 14.3768C39.0778 14.88 39.0967 15.3914 39.2029 15.888C39.2667 16.1553 39.3509 16.4173 39.4547 16.6716C39.5107 16.7976 39.5667 16.9235 39.6297 17.0424L39.7136 17.2104C39.7136 17.2523 39.7976 17.3433 39.7696 17.2943C40.1101 17.7925 40.2387 18.4056 40.1272 18.9987C40.0157 19.5917 39.6731 20.1162 39.1749 20.4567C38.6767 20.7972 38.0636 20.9258 37.4705 20.8143C36.8775 20.7028 36.353 20.3602 36.0125 19.862H36.0055Z" fill="#FBB03B"/>
</svg>
