<svg width="24" height="24" viewBox="0 0 24 24" fill="none" xmlns="http://www.w3.org/2000/svg">
<path d="M13.6099 12.2428C13.6038 12.5596 13.5039 12.8674 13.3227 13.1274C13.1415 13.3873 12.8872 13.5875 12.592 13.7028C12.2969 13.818 11.9742 13.843 11.6648 13.7746C11.3554 13.7062 11.0733 13.5475 10.8542 13.3186C10.6352 13.0897 10.489 12.8009 10.4342 12.4888C10.3795 12.1767 10.4186 11.8554 10.5467 11.5656C10.6747 11.2758 10.886 11.0305 11.1536 10.8609C11.4212 10.6913 11.7331 10.6049 12.0499 10.6128C12.4708 10.6284 12.8691 10.8073 13.1603 11.1116C13.4515 11.4159 13.6128 11.8216 13.6099 12.2428Z" fill="#207CD3"/>
<path d="M14.7635 7.23291H9.33845C8.80166 7.23291 8.28684 7.44615 7.90727 7.82573C7.5277 8.2053 7.31445 8.72011 7.31445 9.25691V14.8039C7.31445 15.0697 7.36681 15.3329 7.46852 15.5785C7.57024 15.824 7.71932 16.0471 7.90727 16.2351C8.09521 16.423 8.31834 16.5721 8.5639 16.6738C8.80946 16.7756 9.07266 16.8279 9.33845 16.8279H14.7635C15.0292 16.8279 15.2924 16.7756 15.538 16.6738C15.7836 16.5721 16.0067 16.423 16.1946 16.2351C16.3826 16.0471 16.5317 15.824 16.6334 15.5785C16.7351 15.3329 16.7875 15.0697 16.7875 14.8039V9.26691C16.7885 9.00035 16.7369 8.7362 16.6357 8.4896C16.5345 8.243 16.3856 8.0188 16.1976 7.82985C16.0096 7.64089 15.7861 7.4909 15.54 7.38847C15.2939 7.28603 15.03 7.23317 14.7635 7.23291ZM12.0505 14.9559C11.5134 14.968 10.9849 14.8199 10.5325 14.5303C10.08 14.2408 9.72411 13.823 9.51014 13.3303C9.29617 12.8376 9.23386 12.2923 9.33117 11.764C9.42847 11.2357 9.68098 10.7484 10.0565 10.3642C10.4319 9.98008 10.9134 9.71652 11.4393 9.60718C11.9652 9.49785 12.5118 9.54769 13.0093 9.75036C13.5067 9.95303 13.9325 10.2993 14.2323 10.7451C14.5321 11.1908 14.6923 11.7157 14.6925 12.2529C14.6968 12.604 14.6319 12.9524 14.5014 13.2784C14.3709 13.6043 14.1775 13.9013 13.9321 14.1524C13.6867 14.4034 13.3941 14.6036 13.0713 14.7415C12.7484 14.8794 12.4015 14.9523 12.0505 14.9559ZM14.9865 9.55091C14.9205 9.55092 14.8551 9.53777 14.7943 9.51222C14.7335 9.48667 14.6783 9.44924 14.6321 9.40212C14.586 9.355 14.5496 9.29913 14.5253 9.23779C14.501 9.17646 14.4891 9.11088 14.4905 9.04491C14.4905 8.91071 14.5438 8.78201 14.6387 8.68711C14.7336 8.59222 14.8623 8.53891 14.9965 8.53891C15.1307 8.53891 15.2594 8.59222 15.3542 8.68711C15.4491 8.78201 15.5025 8.91071 15.5025 9.04491C15.5044 9.11635 15.491 9.18737 15.463 9.25311C15.4349 9.31886 15.3931 9.37778 15.3402 9.42583C15.2873 9.47388 15.2246 9.50994 15.1565 9.53153C15.0884 9.55311 15.0164 9.55973 14.9455 9.55091H14.9865Z" fill="#207CD3"/>
<path d="M12.0501 2.00013C9.39796 1.98686 6.84915 3.02771 4.96441 4.8937C3.07967 6.75969 2.01339 9.29796 2.00013 11.9501C1.98686 14.6023 3.02771 17.1511 4.8937 19.0358C6.75969 20.9206 9.29796 21.9869 11.9501 22.0001C13.2633 22.0067 14.565 21.7545 15.7808 21.2581C16.9965 20.7616 18.1026 20.0305 19.0358 19.1065C19.9691 18.1826 20.7112 17.0839 21.2198 15.8732C21.7284 14.6624 21.9936 13.3633 22.0001 12.0501C22.0067 10.7369 21.7545 9.43525 21.2581 8.21948C20.7616 7.00372 20.0305 5.89764 19.1065 4.96441C18.1826 4.03118 17.0839 3.28908 15.8732 2.78046C14.6624 2.27185 13.3633 2.00669 12.0501 2.00013ZM18.1231 14.7021C18.1259 15.1508 18.0396 15.5955 17.8693 16.0105C17.6989 16.4256 17.4478 16.8026 17.1306 17.1199C16.8134 17.4372 16.4364 17.6884 16.0214 17.8589C15.6065 18.0294 15.1618 18.1158 14.7131 18.1131H9.38913C8.94049 18.1159 8.49577 18.0296 8.08073 17.8593C7.6657 17.6889 7.28861 17.4378 6.97133 17.1206C6.65404 16.8034 6.40287 16.4264 6.23238 16.0114C6.06189 15.5965 5.97547 15.1518 5.97813 14.7031V9.37813C5.97534 8.92949 6.06163 8.48477 6.232 8.06973C6.40237 7.6547 6.65343 7.27761 6.97062 6.96033C7.28781 6.64304 7.66482 6.39187 8.07981 6.22138C8.49479 6.05089 8.93949 5.96447 9.38812 5.96713H14.7131C15.1617 5.96447 15.6063 6.05086 16.0212 6.22129C16.4361 6.39172 16.8131 6.6428 17.1303 6.95997C17.4475 7.27715 17.6985 7.65412 17.869 8.06904C18.0394 8.48396 18.1258 8.92858 18.1231 9.37713V14.7021Z" fill="#207CD3"/>
</svg>
