<svg preserveAspectRatio="none" width="100%" height="100%" overflow="visible" style="display: block;" viewBox="0 0 36 36" fill="none" xmlns="http://www.w3.org/2000/svg">
<g id="devicon:google" clip-path="url(#clip0_0_94)">
<path id="Vector" d="M12.5409 1.18406C8.94398 2.43188 5.84197 4.80028 3.69054 7.94138C1.53911 11.0825 0.451663 14.8307 0.587932 18.6355C0.7242 22.4403 2.077 26.1012 4.44762 29.0803C6.81825 32.0595 10.0817 34.1999 13.7587 35.1872C16.7398 35.9564 19.863 35.9902 22.86 35.2856C25.575 34.6758 28.085 33.3713 30.1444 31.5C32.2877 29.4929 33.8435 26.9395 34.6444 24.1144C35.5149 21.0422 35.6698 17.8114 35.0972 14.67H18.3572V21.6141H28.0519C27.8581 22.7216 27.4429 23.7786 26.8311 24.722C26.2193 25.6653 25.4235 26.4755 24.4913 27.1041C23.3074 27.8871 21.9729 28.414 20.5734 28.6509C19.1698 28.9119 17.7302 28.9119 16.3266 28.6509C14.904 28.3568 13.5582 27.7697 12.375 26.9269C10.4742 25.5813 9.0469 23.6698 8.29688 21.465C7.53417 19.2189 7.53417 16.7839 8.29688 14.5378C8.83076 12.9634 9.71334 11.5299 10.8787 10.3444C12.2124 8.96273 13.9009 7.97512 15.7589 7.4899C17.6169 7.00469 19.5726 7.04062 21.4116 7.59375C22.8481 8.03473 24.1618 8.8052 25.2478 9.84375C26.3409 8.75625 27.4322 7.66594 28.5216 6.57281C29.0841 5.985 29.6972 5.42531 30.2512 4.82344C28.5935 3.28071 26.6475 2.08029 24.525 1.29094C20.6598 -0.112529 16.4306 -0.150245 12.5409 1.18406Z" fill="var(--fill-0, white)"/>
<path id="Vector_2" d="M12.5409 1.18406C16.4302 -0.151152 20.6595 -0.114428 24.525 1.28812C26.6479 2.08284 28.593 3.28904 30.2484 4.8375C29.6859 5.43937 29.0925 6.00187 28.5187 6.58687C27.4275 7.67625 26.3372 8.76187 25.2478 9.84375C24.1618 8.8052 22.8481 8.03473 21.4116 7.59375C19.5732 7.03868 17.6176 7.00067 15.7591 7.4839C13.9006 7.96713 12.2111 8.95292 10.8759 10.3331C9.71053 11.5187 8.82795 12.9522 8.29406 14.5266L2.46375 10.0125C4.55065 5.87408 8.16398 2.7085 12.5409 1.18406Z" fill="var(--fill-0, #E33629)"/>
<path id="Vector_3" d="M0.916875 14.4844C1.23025 12.9313 1.75051 11.4273 2.46375 10.0125L8.29406 14.5378C7.53135 16.7839 7.53135 19.2189 8.29406 21.465C6.35156 22.965 4.40813 24.4725 2.46375 25.9875C0.678236 22.4334 0.133686 18.3839 0.916875 14.4844Z" fill="var(--fill-0, #F8BD00)"/>
<path id="Vector_4" d="M18.3572 14.6672H35.0972C35.6698 17.8086 35.5149 21.0394 34.6444 24.1116C33.8435 26.9367 32.2877 29.49 30.1444 31.4972C28.2628 30.0291 26.3728 28.5722 24.4912 27.1041C25.4241 26.4748 26.2203 25.6638 26.8321 24.7194C27.444 23.7751 27.8588 22.717 28.0519 21.6084H18.3572C18.3544 19.2966 18.3572 16.9819 18.3572 14.6672Z" fill="var(--fill-0, #587DBD)"/>
<path id="Vector_5" d="M2.46094 25.9875C4.40531 24.4875 6.34875 22.98 8.29125 21.465C9.04277 23.6706 10.4721 25.5822 12.375 26.9269C13.5619 27.7657 14.9106 28.3481 16.335 28.6369C17.7386 28.8979 19.1783 28.8979 20.5819 28.6369C21.9814 28.4 23.3159 27.8731 24.4997 27.09C26.3813 28.5581 28.2712 30.015 30.1528 31.4831C28.0938 33.3555 25.5837 34.6609 22.8684 35.2716C19.8715 35.9761 16.7482 35.9423 13.7672 35.1731C11.4095 34.5436 9.20721 33.4339 7.29844 31.9134C5.27811 30.3094 3.628 28.288 2.46094 25.9875Z" fill="var(--fill-0, #319F43)"/>
</g>
<defs>
<clipPath id="clip0_0_94">
<rect width="36" height="36" fill="white"/>
</clipPath>
</defs>
</svg>
