<svg preserveAspectRatio="none" width="100%" height="100%" overflow="visible" style="display: block;" viewBox="0 0 25 18" fill="none" xmlns="http://www.w3.org/2000/svg">
<g id="logos:youtube-icon" clip-path="url(#clip0_0_100)">
<path id="Vector" d="M24.4455 2.8075C24.3022 2.26486 24.0225 1.77014 23.6344 1.37263C23.2463 0.975112 22.7633 0.688661 22.2335 0.5418C20.2938 -4.69387e-07 12.4873 -4.69387e-07 12.4873 -4.69387e-07C12.4873 -4.69387e-07 4.68045 0.0163995 2.74079 0.5582C2.21096 0.705069 1.72795 0.991535 1.33984 1.38907C0.951731 1.7866 0.672076 2.28134 0.528723 2.824C-0.0579784 6.3538 -0.285571 11.7324 0.544834 15.121C0.688201 15.6636 0.967863 16.1584 1.35597 16.5559C1.74408 16.9534 2.22709 17.2398 2.7569 17.3867C4.69656 17.9285 12.5032 17.9285 12.5032 17.9285C12.5032 17.9285 20.3098 17.9285 22.2494 17.3867C22.7792 17.2399 23.2623 16.9534 23.6504 16.5559C24.0385 16.1584 24.3182 15.6637 24.4616 15.121C25.0804 11.5862 25.2711 6.2109 24.4455 2.8075Z" fill="var(--fill-0, white)"/>
<path id="Vector_2" d="M10.0025 12.806L16.4786 8.9642L10.0025 5.1224V12.806Z" fill="var(--fill-0, #CF2A1E)"/>
</g>
<defs>
<clipPath id="clip0_0_100">
<rect width="25" height="18" fill="white"/>
</clipPath>
</defs>
</svg>
