<svg preserveAspectRatio="none" width="100%" height="100%" overflow="visible" style="display: block;" viewBox="0 0 16.25 8.125" fill="none" xmlns="http://www.w3.org/2000/svg">
<path id="Icon" d="M1.54375 4.0625C1.54375 2.67312 2.67312 1.54375 4.0625 1.54375H7.3125V0H4.0625C1.82 0 0 1.82 0 4.0625C0 6.305 1.82 8.125 4.0625 8.125H7.3125V6.58125H4.0625C2.67312 6.58125 1.54375 5.45188 1.54375 4.0625ZM4.875 4.875H11.375V3.25H4.875V4.875ZM12.1875 0H8.9375V1.54375H12.1875C13.5769 1.54375 14.7063 2.67312 14.7063 4.0625C14.7063 5.45188 13.5769 6.58125 12.1875 6.58125H8.9375V8.125H12.1875C14.43 8.125 16.25 6.305 16.25 4.0625C16.25 1.82 14.43 0 12.1875 0Z" fill="var(--fill-0, #4FA1ED)"/>
</svg>
