<svg preserveAspectRatio="none" width="100%" height="100%" overflow="visible" style="display: block;" viewBox="0 0 8.73438 11.375" fill="none" xmlns="http://www.w3.org/2000/svg">
<path id="Icon" d="M6.9875 5.51687C7.77563 4.9725 8.32812 4.07875 8.32812 3.25C8.32812 1.41375 6.90625 0 5.07812 0H0V11.375H5.72C7.41812 11.375 8.73438 9.99375 8.73438 8.29563C8.73438 7.06063 8.03563 6.00437 6.9875 5.51687V5.51687ZM2.4375 2.03125H4.875C5.54937 2.03125 6.09375 2.57563 6.09375 3.25C6.09375 3.92437 5.54937 4.46875 4.875 4.46875H2.4375V2.03125ZM5.28125 9.34375H2.4375V6.90625H5.28125C5.95562 6.90625 6.5 7.45063 6.5 8.125C6.5 8.79937 5.95562 9.34375 5.28125 9.34375Z" fill="var(--fill-0, #4FA1ED)"/>
</svg>
