<svg preserveAspectRatio="none" width="100%" height="100%" overflow="visible" style="display: block;" viewBox="0 0 32.8333 32.8333" fill="none" xmlns="http://www.w3.org/2000/svg">
<path id="Icon" d="M16.4167 1L19.5184 9.06459C19.9532 10.195 20.1706 10.7602 20.5086 11.2356C20.8082 11.657 21.1764 12.0251 21.5977 12.3247C22.0732 12.6628 22.6383 12.8801 23.7687 13.3149L31.8333 16.4167L23.7687 19.5184C22.6384 19.9532 22.0732 20.1706 21.5977 20.5086C21.1764 20.8082 20.8082 21.1764 20.5086 21.5977C20.1706 22.0732 19.9532 22.6383 19.5184 23.7687L16.4167 31.8333L13.3149 23.7687C12.8801 22.6383 12.6628 22.0732 12.3247 21.5977C12.0251 21.1764 11.657 20.8082 11.2356 20.5086C10.7602 20.1706 10.195 19.9532 9.06459 19.5184L1 16.4167L9.06459 13.3149C10.195 12.8801 10.7602 12.6628 11.2356 12.3247C11.657 12.0251 12.0251 11.657 12.3247 11.2356C12.6627 10.7602 12.8801 10.195 13.3149 9.06459L16.4167 1Z" stroke="var(--stroke-0, white)" stroke-width="2" stroke-linecap="round" stroke-linejoin="round"/>
</svg>
