<svg preserveAspectRatio="none" width="100%" height="100%" overflow="visible" style="display: block;" viewBox="0 0 24 24" fill="none" xmlns="http://www.w3.org/2000/svg">
<g id="mage:instagram-circle">
<path id="Vector" d="M13.61 12.243C13.604 12.5598 13.504 12.8676 13.3228 13.1276C13.1416 13.3875 12.8873 13.5877 12.5922 13.703C12.297 13.8182 11.9743 13.8432 11.6649 13.7748C11.3555 13.7064 11.0734 13.5477 10.8544 13.3188C10.6353 13.0899 10.4891 12.8011 10.4344 12.489C10.3796 12.1769 10.4187 11.8556 10.5468 11.5658C10.6749 11.276 10.8861 11.0307 11.1537 10.8611C11.4213 10.6915 11.7333 10.6051 12.05 10.613C12.4709 10.6286 12.8692 10.8075 13.1604 11.1118C13.4516 11.4161 13.6129 11.8218 13.61 12.243Z" fill="var(--fill-0, #207CD3)"/>
<path id="Vector_2" d="M14.763 7.233H9.338C8.8012 7.233 8.28639 7.44624 7.90682 7.82582C7.52724 8.20539 7.314 8.7202 7.314 9.257V14.804C7.314 15.0698 7.36635 15.333 7.46807 15.5786C7.56978 15.8241 7.71887 16.0472 7.90682 16.2352C8.09476 16.4231 8.31789 16.5722 8.56345 16.6739C8.80901 16.7756 9.0722 16.828 9.338 16.828H14.763C15.0288 16.828 15.292 16.7756 15.5376 16.6739C15.7831 16.5722 16.0062 16.4231 16.1942 16.2352C16.3821 16.0472 16.5312 15.8241 16.6329 15.5786C16.7346 15.333 16.787 15.0698 16.787 14.804V9.267C16.7881 9.00044 16.7365 8.73629 16.6353 8.48969C16.5341 8.24309 16.3852 8.01889 16.1971 7.82994C16.0091 7.64098 15.7857 7.49099 15.5396 7.38856C15.2935 7.28612 15.0296 7.23326 14.763 7.233ZM12.05 14.956C11.513 14.9681 10.9845 14.82 10.532 14.5304C10.0796 14.2409 9.72366 13.8231 9.50969 13.3304C9.29572 12.8376 9.23341 12.2923 9.33072 11.7641C9.42802 11.2358 9.68053 10.7485 10.056 10.3643C10.4315 9.98017 10.9129 9.71661 11.4388 9.60727C11.9648 9.49794 12.5113 9.54778 13.0088 9.75045C13.5063 9.95312 13.9321 10.2994 14.2319 10.7451C14.5317 11.1909 14.6919 11.7158 14.692 12.253C14.6964 12.6041 14.6314 12.9525 14.501 13.2785C14.3705 13.6044 14.177 13.9014 13.9316 14.1525C13.6862 14.4035 13.3937 14.6037 13.0708 14.7416C12.748 14.8795 12.4011 14.9523 12.05 14.956ZM14.986 9.551C14.92 9.55101 14.8547 9.53786 14.7939 9.51231C14.733 9.48676 14.6779 9.44933 14.6317 9.40221C14.5855 9.35509 14.5492 9.29922 14.5248 9.23788C14.5005 9.17655 14.4887 9.11097 14.49 9.045C14.49 8.9108 14.5433 8.7821 14.6382 8.6872C14.7331 8.59231 14.8618 8.539 14.996 8.539C15.1302 8.539 15.2589 8.59231 15.3538 8.6872C15.4487 8.7821 15.502 8.9108 15.502 9.045C15.504 9.11644 15.4905 9.18746 15.4625 9.2532C15.4345 9.31895 15.3926 9.37787 15.3397 9.42592C15.2868 9.47397 15.2242 9.51003 15.156 9.53162C15.0879 9.5532 15.0159 9.55982 14.945 9.551H14.986Z" fill="var(--fill-0, #207CD3)"/>
<path id="Vector_3" d="M12.05 2C9.39784 1.98674 6.84903 3.02759 4.96429 4.89358C3.07955 6.75956 2.01326 9.29783 2 11.95C1.98674 14.6022 3.02759 17.151 4.89358 19.0357C6.75956 20.9205 9.29783 21.9867 11.95 22C13.2632 22.0066 14.5649 21.7544 15.7806 21.2579C16.9964 20.7614 18.1025 20.0304 19.0357 19.1064C19.9689 18.1825 20.711 17.0838 21.2197 15.873C21.7283 14.6623 21.9934 13.3632 22 12.05C22.0066 10.7368 21.7544 9.43513 21.2579 8.21936C20.7614 7.00359 20.0304 5.89752 19.1064 4.96429C18.1825 4.03106 17.0838 3.28895 15.873 2.78034C14.6623 2.27173 13.3632 2.00657 12.05 2ZM18.123 14.702C18.1258 15.1506 18.0395 15.5954 17.8691 16.0104C17.6988 16.4254 17.4477 16.8025 17.1305 17.1198C16.8133 17.4371 16.4363 17.6883 16.0213 17.8587C15.6063 18.0292 15.1616 18.1157 14.713 18.113H9.389C8.94037 18.1158 8.49564 18.0295 8.08061 17.8591C7.66557 17.6888 7.28848 17.4377 6.9712 17.1205C6.65392 16.8033 6.40275 16.4263 6.23226 16.0113C6.06177 15.5963 5.97534 15.1516 5.978 14.703V9.378C5.97521 8.92937 6.06151 8.48464 6.23187 8.06961C6.40224 7.65457 6.6533 7.27748 6.97049 6.9602C7.28768 6.64292 7.6647 6.39175 8.07968 6.22126C8.49467 6.05077 8.93937 5.96434 9.388 5.967H14.713C15.1615 5.96435 15.6062 6.05074 16.0211 6.22116C16.436 6.39159 16.813 6.64267 17.1302 6.95985C17.4473 7.27703 17.6984 7.654 17.8688 8.06892C18.0393 8.48383 18.1257 8.92845 18.123 9.377V14.702Z" fill="var(--fill-0, #207CD3)"/>
</g>
</svg>
