<svg preserveAspectRatio="none" width="100%" height="100%" overflow="visible" style="display: block;" viewBox="0 0 18.8537 23.2837" fill="none" xmlns="http://www.w3.org/2000/svg">
<path id="Vector" d="M2.73188 11.1099C2.66194 11.0075 2.59755 10.9013 2.53901 10.792L2.39826 10.5261C2.31078 10.3567 2.23248 10.1827 2.16369 10.0048C2.01937 9.64815 1.90431 9.2803 1.81965 8.90495C1.64636 8.13184 1.61107 7.33419 1.71539 6.54879C1.95018 4.9942 2.70989 3.56676 3.86826 2.50371C4.92823 1.52341 6.20012 0.800942 7.58494 0.392544C8.99521 -0.0544846 10.4985 -0.121019 11.9428 0.199673C12.7436 0.386419 13.4953 0.741844 14.1478 1.24222C14.8229 1.76712 15.3597 2.44886 15.7116 3.22828C16.2835 4.61484 16.4446 6.13664 16.1755 7.61219C16.0725 8.27096 15.9263 8.92222 15.7377 9.56176C15.6383 9.91802 15.5129 10.2665 15.3624 10.6043C15.2164 10.9379 15.06 11.235 14.8984 11.527C14.2616 12.6229 13.5419 13.6685 12.7456 14.6546C11.216 16.5769 9.52431 18.3645 7.6892 19.9977C6.73237 20.8559 5.69551 21.6204 4.59283 22.2808C4.2719 22.4689 3.93735 22.6327 3.59198 22.7708L3.30528 22.8803L2.97166 22.9741C2.88249 22.9998 2.792 23.0207 2.7006 23.0367L2.4556 23.0888C2.28358 23.1201 2.13241 23.1514 1.87699 23.1774H1.7571H1.56944C1.46618 23.1727 1.36339 23.1605 1.26189 23.1409C1.01293 23.0801 0.780013 22.9663 0.579016 22.8073C0.360293 22.63 0.193501 22.3969 0.0962466 22.1327C-0.00100788 21.8685 -0.0251162 21.5829 0.0264661 21.3061C0.37572 20.3052 0.386145 20.6545 0.464337 20.4668C0.542047 20.3887 0.627644 20.3188 0.71976 20.2583C0.769978 20.2239 0.822198 20.1926 0.876142 20.1645C0.969123 20.1156 1.06485 20.072 1.16284 20.0342L1.32965 19.9768C1.70497 19.8517 2.00731 19.7839 2.32529 19.7058C4.75489 19.177 7.23576 18.92 9.72216 18.9395C10.9667 18.9477 12.2096 19.0313 13.4441 19.1897C14.6951 19.3356 15.8993 19.6797 17.1816 19.8256H17.2285C17.4628 19.8399 17.6916 19.9017 17.9013 20.0073C18.1109 20.1128 18.2968 20.2598 18.4478 20.4395C18.5988 20.6191 18.7117 20.8276 18.7796 21.0522C18.8476 21.2769 18.8691 21.513 18.8429 21.7462C18.8167 21.9794 18.7433 22.2048 18.6273 22.4088C18.5113 22.6128 18.3549 22.791 18.1679 22.9327C17.9808 23.0744 17.7668 23.1765 17.539 23.233C17.3112 23.2894 17.0744 23.2989 16.8428 23.2608C16.6285 23.2342 16.4204 23.1707 16.2277 23.0732C15.2197 22.6255 14.1424 22.354 13.0427 22.2704C11.9343 22.1311 10.8184 22.0597 9.70132 22.0567C7.457 22.0512 5.21906 22.2959 3.029 22.7865C2.77358 22.8438 2.50773 22.9168 2.31486 22.9794H2.27837L2.35656 22.9377C2.39548 22.9192 2.4322 22.8965 2.46603 22.8699C2.5512 22.8146 2.62988 22.7499 2.7006 22.677C2.77358 22.4998 2.77358 22.849 3.11762 21.8586C3.17182 21.5886 3.15199 21.3089 3.06023 21.0492C2.96846 20.7895 2.80818 20.5595 2.59635 20.3834C2.40152 20.2294 2.17279 20.1239 1.92912 20.0759C1.84737 20.0549 1.7633 20.0444 1.6789 20.0446H1.57465L1.87178 19.9925L2.06465 19.956C2.11767 19.9456 2.16992 19.9317 2.22103 19.9143H2.31486L2.43996 19.8673C2.6439 19.7781 2.8408 19.6735 3.029 19.5546C3.94272 18.986 4.80134 18.3333 5.59367 17.605C7.27848 16.0896 8.83058 14.4329 10.233 12.6529C10.9182 11.7987 11.5385 10.8943 12.0888 9.9475C12.2139 9.72335 12.3285 9.4992 12.4224 9.2907C12.513 9.08465 12.5879 8.87206 12.6465 8.65474C12.7933 8.15935 12.9047 7.65418 12.9801 7.14304C13.1527 6.28553 13.0804 5.39676 12.7716 4.57838C12.6252 4.26801 12.407 3.99694 12.135 3.78757C11.8631 3.57819 11.5453 3.43651 11.2078 3.37423C9.64398 3.00413 7.43899 3.69742 6.18793 4.93805C5.58701 5.48385 5.19297 6.22038 5.0724 7.02315C5.02091 7.39805 5.03502 7.77904 5.1141 8.1491C5.16164 8.34822 5.22437 8.54341 5.30176 8.73293C5.34346 8.82676 5.38516 8.92059 5.43208 9.00921L5.49463 9.13431C5.49463 9.16559 5.55719 9.23335 5.53633 9.19687C5.79002 9.56807 5.88586 10.0248 5.80277 10.4667C5.71967 10.9086 5.46445 11.2993 5.09325 11.553C4.72205 11.8067 4.26527 11.9026 3.82341 11.8195C3.38154 11.7364 2.99078 11.4811 2.73709 11.1099H2.73188Z" fill="var(--fill-0, #FBB03B)"/>
</svg>
