<svg preserveAspectRatio="none" width="100%" height="100%" overflow="visible" style="display: block;" viewBox="0 0 12.2112 15.2395" fill="none" xmlns="http://www.w3.org/2000/svg">
<path id="Vector" d="M10.5066 6.34324L9.59155 5.96161L10.6818 5.38185C11.0144 5.20767 11.3093 4.96938 11.5493 4.68071C11.7894 4.39203 11.97 4.0587 12.0806 3.69991C12.1912 3.34113 12.2297 2.964 12.1939 2.59026C12.1581 2.21652 12.0486 1.85357 11.8718 1.52234C11.5168 0.851782 10.9099 0.349712 10.1847 0.126553C9.45947 -0.0966055 8.67532 -0.022577 8.00469 0.332357L1.52836 3.76452C1.04723 4.01732 0.648183 4.40209 0.378024 4.87369C0.107865 5.34529 -0.0221974 5.88415 0.00309702 6.42706C0.0289663 6.95627 0.200818 7.46799 0.499616 7.90554C0.798415 8.34309 1.2125 8.68939 1.696 8.90609C1.71886 8.91371 2.61166 9.28709 2.61166 9.28709L1.52836 9.85922C1.07376 10.1044 0.693934 10.468 0.429111 10.9115C0.164289 11.3549 0.024328 11.8617 0.0240519 12.3783C0.0280568 13.136 0.330887 13.8615 0.866755 14.3973C1.40262 14.933 2.12824 15.2357 2.88598 15.2395C3.34636 15.2395 3.79847 15.1291 4.20678 14.917L10.6901 11.4842C11.1702 11.231 11.5681 10.846 11.8369 10.3744C12.1057 9.90289 12.2344 9.36441 12.2077 8.82227C12.1805 8.29242 12.0072 7.78044 11.7071 7.34293C11.407 6.90543 10.9911 6.55944 10.5066 6.34324ZM4.57952 9.64522V5.60283L8.39395 7.62466L4.57952 9.64522Z" fill="var(--fill-0, #E42E21)"/>
</svg>
