<svg preserveAspectRatio="none" width="100%" height="100%" overflow="visible" style="display: block;" viewBox="0 0 18.7097 17.9772" fill="none" xmlns="http://www.w3.org/2000/svg">
<path id="Icon" d="M8.75704 2.1864C8.94911 1.79728 9.04515 1.60272 9.17552 1.54056C9.28895 1.48648 9.42073 1.48648 9.53417 1.54056C9.66454 1.60272 9.76058 1.79728 9.95265 2.1864L11.7749 5.87804C11.8316 5.99291 11.8599 6.05035 11.9014 6.09495C11.9381 6.13443 11.9821 6.16643 12.0309 6.18915C12.0861 6.21482 12.1495 6.22408 12.2763 6.24261L16.3523 6.83839C16.7815 6.90113 16.9962 6.9325 17.0955 7.03733C17.1819 7.12854 17.2225 7.25388 17.2061 7.37845C17.1872 7.52162 17.0318 7.67295 16.7211 7.97562L13.7727 10.8473C13.6808 10.9368 13.6348 10.9816 13.6052 11.0349C13.5789 11.082 13.5621 11.1338 13.5556 11.1874C13.5483 11.2479 13.5591 11.3111 13.5808 11.4376L14.2765 15.4937C14.3498 15.9215 14.3865 16.1354 14.3176 16.2624C14.2576 16.3728 14.151 16.4503 14.0274 16.4732C13.8853 16.4995 13.6933 16.3985 13.3091 16.1965L9.66514 14.2802C9.55161 14.2205 9.49484 14.1906 9.43503 14.1789C9.38208 14.1685 9.32761 14.1685 9.27466 14.1789C9.21485 14.1906 9.15808 14.2205 9.04454 14.2802L5.4006 16.1965C5.01643 16.3985 4.82434 16.4995 4.68231 16.4732C4.55873 16.4503 4.4521 16.3728 4.39211 16.2624C4.32316 16.1354 4.35985 15.9215 4.43322 15.4937L5.1289 11.4376C5.15059 11.3111 5.16143 11.2479 5.1541 11.1874C5.1476 11.1338 5.13076 11.082 5.1045 11.0349C5.07485 10.9816 5.02889 10.9368 4.93698 10.8473L1.98863 7.97562C1.67788 7.67295 1.52251 7.52162 1.5036 7.37845C1.48715 7.25388 1.52779 7.12854 1.6142 7.03733C1.71353 6.9325 1.92814 6.90113 2.35737 6.83839L6.43342 6.24261C6.56018 6.22408 6.62356 6.21482 6.67876 6.18915C6.72763 6.16643 6.77163 6.13443 6.80832 6.09495C6.84975 6.05035 6.8781 5.99291 6.93481 5.87804L8.75704 2.1864Z" fill="var(--fill-0, #FBB03B)" stroke="var(--stroke-0, #FBB03B)" stroke-width="3" stroke-linecap="round" stroke-linejoin="round"/>
</svg>
