<svg preserveAspectRatio="none" width="100%" height="100%" overflow="visible" style="display: block;" viewBox="0 0 39.1322 37.4477" fill="none" xmlns="http://www.w3.org/2000/svg">
<path id="Icon" d="M18.1912 3.07872C18.6329 2.18375 18.8538 1.73627 19.1537 1.59329C19.4146 1.4689 19.7177 1.4689 19.9786 1.59329C20.2784 1.73627 20.4993 2.18375 20.9411 3.07871L25.1322 11.5695C25.2626 11.8337 25.3278 11.9658 25.4231 12.0684C25.5075 12.1592 25.6087 12.2328 25.7211 12.2851C25.8481 12.3441 25.9938 12.3654 26.2854 12.408L35.6603 13.7783C36.6475 13.9226 37.1412 13.9947 37.3696 14.2359C37.5683 14.4457 37.6618 14.7339 37.624 15.0204C37.5805 15.3497 37.2231 15.6978 36.5084 16.3939L29.7272 22.9988C29.5158 23.2047 29.4101 23.3077 29.3419 23.4302C29.2815 23.5386 29.2428 23.6578 29.2278 23.781C29.211 23.9202 29.2359 24.0656 29.2858 24.3564L30.8858 33.6856C31.0546 34.6695 31.139 35.1615 30.9804 35.4535C30.8424 35.7075 30.5972 35.8857 30.313 35.9384C29.9863 35.9989 29.5445 35.7666 28.6609 35.3019L20.2798 30.8944C20.0187 30.757 19.8881 30.6884 19.7506 30.6614C19.6288 30.6375 19.5035 30.6375 19.3817 30.6614C19.2441 30.6884 19.1136 30.757 18.8524 30.8944L10.4714 35.3019C9.58776 35.7666 9.14596 35.9989 8.81929 35.9384C8.53507 35.8857 8.28981 35.7075 8.15184 35.4535C7.99326 35.1615 8.07764 34.6695 8.2464 33.6856L9.84646 24.3564C9.89634 24.0656 9.92128 23.9202 9.90441 23.781C9.88946 23.6578 9.85072 23.5386 9.79034 23.4302C9.72213 23.3077 9.61644 23.2047 9.40505 22.9988L2.62383 16.3939C1.90911 15.6978 1.55175 15.3497 1.50827 15.0204C1.47043 14.7339 1.5639 14.4457 1.76266 14.2359C1.99109 13.9947 2.4847 13.9226 3.47193 13.7783L12.8469 12.408C13.1384 12.3654 13.2842 12.3441 13.4111 12.2851C13.5235 12.2328 13.6247 12.1592 13.7091 12.0684C13.8044 11.9658 13.8696 11.8337 14 11.5695L18.1912 3.07872Z" stroke="var(--stroke-0, #FBB03B)" stroke-width="3" stroke-linecap="round" stroke-linejoin="round"/>
</svg>
